<svg width="105" height="93" viewBox="0 0 105 93" fill="none" xmlns="http://www.w3.org/2000/svg">
<g id="App Icon">
<path id="Rectangle 29" d="M37.1508 83.4585C40.275 86.5827 45.3403 86.5827 48.4645 83.4585L79.4585 52.4646C82.5827 49.3404 82.5827 44.275 79.4585 41.1508L48.4645 10.1569C45.3403 7.03267 40.275 7.03267 37.1508 10.1569L6.15685 41.1509C3.03265 44.275 3.03266 49.3404 6.15685 52.4646L37.1508 83.4585Z" fill="#7A5749"/>
<path id="Rectangle 30" d="M56.1508 83.4585C59.275 86.5827 64.3403 86.5827 67.4645 83.4585L98.4585 52.4646C101.583 49.3404 101.583 44.275 98.4585 41.1508L67.4645 10.1569C64.3403 7.03267 59.275 7.03267 56.1508 10.1569L25.1568 41.1509C22.0326 44.275 22.0326 49.3404 25.1568 52.4646L56.1508 83.4585Z" fill="#7A5749"/>
<rect id="Rectangle 27" width="65.2714" height="65.2714" rx="4" transform="matrix(0.707107 -0.707107 -0.707107 -0.707107 51.9613 92.8339)" fill="#B4A89C"/>
<path id="MZ" d="M33.8198 66.9996V30.9996H40.7048L42.7186 49.6746L44.1248 63.7709H44.6761L46.0823 49.6859L48.0736 30.9996H55.0036V66.9996H54.2161V31.6409H48.7373L46.7686 50.1921L45.2948 64.4121H43.5173L42.0548 50.1809L40.0298 31.6409H34.5961V66.9996H33.8198ZM37.0261 66.9996L36.8911 52.2846L36.3511 33.5871H38.1398L40.1648 52.2171L41.6273 66.3584H47.1623L48.6361 52.1946L50.6611 33.5871H52.4611L51.9323 52.2846L51.7861 66.9996H50.9986L51.1448 52.8584L51.7748 34.2284H51.2573L49.3223 52.8246L47.8823 66.9996H40.9411L39.5011 52.8246L37.5548 34.2284H37.0486L37.6673 52.8584L37.8136 66.9996H37.0261ZM35.3836 66.9996L35.3161 50.9571L35.0798 32.2934H39.3886L41.4473 50.6646L42.8761 65.0646H45.8911L47.3648 50.6646L49.4348 32.2934H53.7323L53.4961 50.9571L53.4286 66.9996H52.6411L52.7086 51.7221L52.9898 32.9346H50.0986L48.0286 51.4746L46.5436 65.7059H42.2236L40.7836 51.4746L38.7361 32.9346H35.8223L36.1036 51.7221L36.1711 66.9996H35.3836ZM61.4301 64.2321L71.2626 33.7784V31.6971H58.3251V30.9996H72.0389V33.9134L62.6226 63.5346H71.3751V64.2321H61.4301ZM57.9876 66.9996V64.1534L67.4601 34.4646H58.3251V33.7671H68.6526L58.7751 64.2771V66.3021H71.3751V66.9996H57.9876ZM59.5626 65.6159V64.4346L69.6876 33.4071V33.0809H58.3251V32.3834H70.4751V33.6209L60.3389 64.6034V64.9184H71.3751V65.6159H59.5626Z" fill="#7A5749"/>
<line id="Line 1" x1="10" y1="70.5" x2="98" y2="70.5" stroke="#A08A82"/>
<line id="Line 2" x1="10" y1="27.5" x2="98" y2="27.5" stroke="#A08A82"/>
</g>
</svg>
